<svg xmlns="http://www.w3.org/2000/svg" width="15" height="20" viewBox="0 0 15 20">
    <path d="M0 12.678C0 8.9 6.17 1.166 6.874.3a.81.81 0 0 1 1.252 0C8.83 1.166 15 8.9 15 12.678A7.421 7.421 0 0 1 7.5 20 7.421 7.421 0 0 1 0 12.678zm1.6 0a5.841 5.841 0 0 0 5.9 5.763 5.841 5.841 0 0 0 5.9-5.763c0-2.466-3.815-7.917-5.9-10.621-2.088 2.704-5.9 8.155-5.9 10.621zM6.7 16.1a.789.789 0 0 1 .8-.78 2.682 2.682 0 0 0 2.711-2.646.8.8 0 0 1 1.6 0 4.262 4.262 0 0 1-4.307 4.2.789.789 0 0 1-.804-.774z" data-name="Union 13"/>
</svg>
