<svg xmlns="http://www.w3.org/2000/svg" width="20.6" height="20.598" viewBox="0 0 20.6 20.598">
    <defs>
        <style>
            .cls-1{fill:#00122b;stroke:#00122b;stroke-width:.6px}
        </style>
    </defs>
    <path id="Union_11" d="M4366.1 12316.2a10 10 0 0 1-6.1-9.213 10.018 10.018 0 1 1 6.1 9.213zm-.514-16.816a8.783 8.783 0 0 0-3.2 3.205 8.857 8.857 0 0 0-.481 7.822 8.6 8.6 0 0 0 4.669 4.684 8.477 8.477 0 0 0 3.412.7 8.6 8.6 0 0 0 4.407-1.182 8.771 8.771 0 0 0 3.215-3.2 8.645 8.645 0 0 0 1.181-4.421 8.557 8.557 0 0 0-1.181-4.4 8.81 8.81 0 0 0-3.215-3.205 8.774 8.774 0 0 0-8.8 0zm7.25 11.454l-3.27-3.271a.575.575 0 0 1-.164-.492.465.465 0 0 0-.022-.088v-5.756a.616.616 0 0 1 .6-.612.63.63 0 0 1 .634.612v5.669l3.062 3.085a.6.6 0 0 1-.842.853z" class="cls-1" data-name="Union 11" transform="translate(-4359.699 -12296.699)"/>
</svg>
