<svg xmlns="http://www.w3.org/2000/svg" width="50.002" height="49.998" viewBox="0 0 50.002 49.998">
    <path d="M19.102 48.852l-1.381-1.379-.117.117a4.876 4.876 0 0 1-6.9 0l-.689-.689-.689.689a4.882 4.882 0 0 1-6.9-6.9l.689-.689-.689-.689a4.88 4.88 0 0 1 0-6.908l.113-.119-1.379-1.379a3.906 3.906 0 0 1 5.523-5.525l5.523 5.525 18.709-18.709-5.523-5.523a3.906 3.906 0 0 1 5.523-5.525L32.3 2.53l.113-.119a4.891 4.891 0 0 1 6.908 0l.689.7.691-.7a4.883 4.883 0 0 1 6.9 6.908l-.689.691.689.689a4.883 4.883 0 0 1-.117 7.021l1.385 1.385a3.906 3.906 0 0 1-5.529 5.52l-5.52-5.52-18.713 18.709 5.529 5.523a3.906 3.906 0 0 1-5.529 5.52zm-16.566-22.1a1.955 1.955 0 0 0-.006 2.764c.9.9 17.139 17.139 17.957 17.953a1.952 1.952 0 0 0 2.76-2.76L5.294 26.752a1.956 1.956 0 0 0-1.383-.572 1.928 1.928 0 0 0-1.38.576zm1.26 15.311a2.93 2.93 0 0 0 4.141 4.145l.689-.689-4.139-4.145zm0-8.283a2.92 2.92 0 0 0 0 4.139l8.285 8.289a2.932 2.932 0 0 0 4.143 0l.119-.119L3.915 33.661zm9.787-1.5l4.139 4.145 18.709-18.709-4.139-4.145zm13.18-29.756a1.957 1.957 0 0 0 0 2.764L44.72 23.241a1.952 1.952 0 0 0 2.76-2.76c-.8-.809-17.057-17.062-17.953-17.957a1.959 1.959 0 0 0-2.764 0zM33.79 3.79l-.119.119 12.428 12.428.119-.119a2.929 2.929 0 0 0 0-4.145L37.935 3.79a2.923 2.923 0 0 0-4.145 0zm8.283 0l-.689.689 4.145 4.145.689-.7a2.929 2.929 0 1 0-4.145-4.139zM29.085 39.528a10.453 10.453 0 1 1 10.451 10.451A10.465 10.465 0 0 1 29.08 39.527zm1.193 0a9.257 9.257 0 1 0 9.258-9.256 9.267 9.267 0 0 0-9.263 9.255zm8.66 4.119v-3.521h-3.521a.6.6 0 1 1 0-1.193h3.521v-3.527a.6.6 0 1 1 1.193 0v3.527h3.527a.6.6 0 1 1 0 1.193h-3.527v3.521a.6.6 0 1 1-1.193 0zM18.983 31.014a.977.977 0 0 1 0-1.381l7.9-7.9a.975.975 0 0 1 1.379 1.379l-7.893 7.9a.983.983 0 0 1-1.385 0zm10.662-10.658a.969.969 0 1 1 .693.291.975.975 0 0 1-.697-.292z" data-name="Union 4"/>
</svg>
