<svg xmlns="http://www.w3.org/2000/svg" id="Group_6398" width="35" height="35" data-name="Group 6398" viewBox="0 0 35 35">
    <defs>
        <style>
            .cls-1,.cls-2{fill:#363636}.cls-2{stroke:#363636;stroke-width:.7px}
        </style>
    </defs>
    <path id="Path_1112" d="M23.985 41.5A17.5 17.5 0 1 0 6.5 23.985 17.53 17.53 0 0 0 23.985 41.5zm0-32.558A15.043 15.043 0 1 1 8.942 23.985 15.066 15.066 0 0 1 23.985 8.942z" class="cls-1" data-name="Path 1112" transform="translate(-6.5 -6.5)"/>
    <path id="Path_1115" d="M48.089 46.026a.826.826 0 0 0 .6.247.861.861 0 0 0 .6-.247.846.846 0 0 0 0-1.2l-4.844-4.844 4.844-4.844a.845.845 0 0 0-1.2-1.2l-5.442 5.442a.846.846 0 0 0 0 1.2z" class="cls-2" data-name="Path 1115" transform="translate(-29.928 -22.592)"/>
</svg>
