<svg xmlns="http://www.w3.org/2000/svg" width="35" height="35" viewBox="0 0 35 35">
    <defs>
        <style>
            .cls-1{fill:#727272}
        </style>
    </defs>
    <path id="Next" d="M0 17.5A17.5 17.5 0 1 1 17.5 35 17.52 17.52 0 0 1 0 17.5zm1.751 0A15.752 15.752 0 1 0 17.5 1.744 15.77 15.77 0 0 0 1.751 17.5zm17.81 5.535a.871.871 0 0 1 0-1.232l3.429-3.428H9.9a.873.873 0 1 1 0-1.746h13.094L19.572 13.2a.872.872 0 0 1 1.233-1.232l4.917 4.916a.871.871 0 0 1 0 1.234l-4.917 4.916a.867.867 0 0 1-.619.262.894.894 0 0 1-.625-.263z" class="cls-1"/>
</svg>
