<svg xmlns="http://www.w3.org/2000/svg" id="notification" width="24" height="24" viewBox="0 0 24 24">
    <defs>
        <style>
            .cls-1{fill:none}.cls-2{fill:#363636}
        </style>
    </defs>
    <path id="Path_80" d="M0 0h24v24H0z" class="cls-1" data-name="Path 80"/>
    <path id="Path_81" d="M18 16v-5c0-3.07-1.64-5.64-4.5-6.32V4a1.507 1.507 0 0 0-1.51-1.5A1.49 1.49 0 0 0 10.5 4v.68C7.63 5.36 6 7.92 6 11v5l-1.3 1.29A1 1 0 0 0 5.4 19h13.17a1 1 0 0 0 .71-1.71zm-6.01 6a2.006 2.006 0 0 0 2-2h-4a2 2 0 0 0 2 2zM6.77 4.73A.985.985 0 0 0 6.8 3.3a1 1 0 0 0-1.39-.02 10.424 10.424 0 0 0-3.27 6.06 1.011 1.011 0 0 0 1 1.16 1 1 0 0 0 .98-.83 8.44 8.44 0 0 1 2.65-4.94zM18.6 3.28a1.012 1.012 0 0 0-1.4.02.982.982 0 0 0 .03 1.42 8.5 8.5 0 0 1 2.65 4.94.982.982 0 0 0 .98.83 1 1 0 0 0 .99-1.16 10.488 10.488 0 0 0-3.25-6.05z" class="cls-2" data-name="Path 81"/>
</svg>
