<svg xmlns="http://www.w3.org/2000/svg" width="22" height="20" viewBox="0 0 22 20">
    <defs>
        <style>
            .cls-1{fill:#00122b}
        </style>
    </defs>
    <path id="Union_12" d="M4371.268 12316.734a.9.9 0 0 1 0-1.285l1.185-1.176h-5.13A7.3 7.3 0 0 1 4360 12307a6.723 6.723 0 0 1 2-4.78.923.923 0 0 1 1.3 0 .9.9 0 0 1 0 1.286 4.914 4.914 0 0 0-1.466 3.5 5.474 5.474 0 0 0 5.5 5.455h5.12l-1.185-1.175a.9.9 0 0 1 0-1.286.923.923 0 0 1 1.3 0l2.75 2.728c.021.021.041.043.06.065l.024.032c.01.014.021.026.029.04l.024.039c.007.012.015.023.021.036l.021.042c.007.015.013.025.018.039l.015.04c.005.014.011.029.015.044l.011.041.011.045.008.049c.003.017 0 .026.006.039a1 1 0 0 1 0 .18c0 .014 0 .026-.006.04s0 .031-.008.048-.007.029-.011.045-.006.027-.011.041a.341.341 0 0 1-.015.043l-.015.041c-.005.014-.012.026-.018.039s-.013.028-.021.041l-.021.038-.024.039c-.009.014-.02.026-.029.039l-.024.032a.7.7 0 0 1-.061.065l-2.75 2.728a.921.921 0 0 1-1.3 0zm7.433-4.952a.9.9 0 0 1 0-1.285 4.917 4.917 0 0 0 1.465-3.5 5.472 5.472 0 0 0-5.5-5.454h-5.12l1.185 1.176a.9.9 0 0 1 0 1.285.921.921 0 0 1-1.3 0l-2.75-2.727a1.254 1.254 0 0 1-.061-.066l-.024-.033c-.01-.013-.02-.025-.029-.039l-.025-.04-.022-.036-.02-.041-.019-.039-.015-.041c0-.015-.011-.028-.015-.044l-.011-.041-.011-.045-.008-.048c-.003-.017 0-.026-.006-.04v-.088-.09c0-.014 0-.026.006-.04s0-.031.008-.048.007-.029.011-.045l.011-.041.015-.043.015-.041c.005-.013.013-.025.019-.039l.02-.041.022-.037.025-.04.029-.038.024-.032a.8.8 0 0 1 .061-.067l2.75-2.728a.922.922 0 0 1 1.3 0 .9.9 0 0 1 0 1.286l-1.185 1.176h5.13A7.3 7.3 0 0 1 4382 12307a6.724 6.724 0 0 1-2 4.781.923.923 0 0 1-1.3 0z" class="cls-1" data-name="Union 12" transform="translate(-4360 -12297)"/>
</svg>
