<svg xmlns="http://www.w3.org/2000/svg" width="42.303" height="42.951" viewBox="0 0 42.303 42.951">
    <defs>
        <style>
            .cls-1{fill:none}.cls-2{fill:#fff}.cls-3{filter:url(#Path_1117)}
        </style>
        <filter id="Path_1117" width="42.303" height="42.951" x="0" y="0" filterUnits="userSpaceOnUse">
            <feOffset dy="3"/>
            <feGaussianBlur result="blur" stdDeviation="3"/>
            <feFlood flood-opacity=".102"/>
            <feComposite in2="blur" operator="in"/>
            <feComposite in="SourceGraphic"/>
        </filter>
    </defs>
    <g id="round-settings-24px_1_" data-name="round-settings-24px (1)" transform="translate(6.154 3.475)">
        <path id="Path_1116" d="M0 0h30v30H0z" class="cls-1" data-name="Path 1116"/>
        <g class="cls-3" transform="translate(-6.15 -3.47)">
            <path id="Path_1117-2" d="M23.706 15.7a9.709 9.709 0 0 0 .087-1.223 9.71 9.71 0 0 0-.087-1.223l2.636-2.058a.629.629 0 0 0 .15-.8l-2.5-4.316a.628.628 0 0 0-.762-.274l-3.109 1.247A9.13 9.13 0 0 0 18.01 5.83l-.475-3.306A.609.609 0 0 0 16.923 2h-5a.609.609 0 0 0-.612.524l-.472 3.306a9.6 9.6 0 0 0-2.111 1.223L5.618 5.8a.61.61 0 0 0-.762.274L2.357 10.4a.615.615 0 0 0 .15.8l2.636 2.058a9.881 9.881 0 0 0-.087 1.223 9.881 9.881 0 0 0 .087 1.219l-2.636 2.056a.629.629 0 0 0-.15.8l2.5 4.316a.628.628 0 0 0 .762.274L8.728 21.9a9.13 9.13 0 0 0 2.111 1.223l.475 3.306a.609.609 0 0 0 .612.524h5a.609.609 0 0 0 .612-.524l.475-3.306a9.6 9.6 0 0 0 2.108-1.223l3.111 1.248a.61.61 0 0 0 .762-.274l2.5-4.316a.629.629 0 0 0-.15-.8zm-9.282 3.144a4.366 4.366 0 1 1 4.376-4.369 4.374 4.374 0 0 1-4.375 4.367z" class="cls-2" data-name="Path 1117" transform="translate(6.73 4)"/>
        </g>
    </g>
</svg>
